<svg width="1000" height="220" viewBox="0 0 1000 220" fill="none" xmlns="http://www.w3.org/2000/svg" role="img" aria-label="SastaCoupon">
  <defs>
    <linearGradient id="scBrandF" x1="28" y1="28" x2="192" y2="192" gradientUnits="userSpaceOnUse">
      <stop offset="0" stop-color="#7C3AED"/>
      <stop offset="1" stop-color="#06B6D4"/>
    </linearGradient>
    <linearGradient id="scPctF" x1="72" y1="72" x2="148" y2="148" gradientUnits="userSpaceOnUse">
      <stop offset="0" stop-color="#7C3AED"/>
      <stop offset="0.55" stop-color="#8B5CF6"/>
      <stop offset="1" stop-color="#06B6D4"/>
    </linearGradient>
  </defs>

  <!-- mark -->
  <g transform="translate(14 14)">
    <rect x="0" y="0" width="192" height="192" rx="50" fill="url(#scBrandF)"/>
    <path d="M51 58
             h90 a11 11 0 0 1 11 11 v14
             a13 13 0 0 0 0 26 v14
             a11 11 0 0 1 -11 11 h-90
             a11 11 0 0 1 -11 -11 v-14
             a13 13 0 0 0 0 -26 v-14
             a11 11 0 0 1 11 -11 z"
          fill="#FFFFFF"/>
    <line x1="123" y1="62" x2="123" y2="130" stroke="#DDD6FE" stroke-width="4" stroke-linecap="round" stroke-dasharray="1 10"/>
    <g fill="url(#scPctF)">
      <circle cx="71" cy="79" r="11"/>
      <circle cx="97" cy="113" r="11"/>
      <rect x="77" y="61" width="14" height="71" rx="7" transform="rotate(34 84 96)"/>
    </g>
    <path d="M150 44 l5 13 13 5 -13 5 -5 13 -5 -13 -13 -5 13 -5 z" fill="#F472B6"/>
  </g>

  <!-- wordmark -->
  <text x="238" y="138" font-family="Inter, system-ui, -apple-system, sans-serif" font-size="104" font-weight="800" letter-spacing="-3">
    <tspan fill="#0F172A">Sasta</tspan><tspan fill="#7C3AED">Coupon</tspan>
  </text>
</svg>
